<svg width="986" height="160" viewBox="0 0 986 160" fill="none" xmlns="http://www.w3.org/2000/svg">
<g clip-path="url(#clip0_201_1319)">
<mask id="mask0_201_1319" style="mask-type:luminance" maskUnits="userSpaceOnUse" x="0" y="0" width="986" height="160">
<path d="M985.81 0H0V159.93H985.81V0Z" fill="white"/>
</mask>
<g mask="url(#mask0_201_1319)">
<path d="M553.811 58.1V116.1H569.811V57.3L572.111 56.7C574.855 56.263 577.632 56.0622 580.411 56.1C588.211 56.1 592.311 58.7 595.811 65.6C598.211 70.4 598.311 71.4 598.611 93.3L599.011 116.1H613.811V92.8C613.811 68.1 613.011 62.4 608.811 55.6C602.911 46 592.311 41.5 577.911 42.3L569.811 42.8L569.611 21.7L569.311 0.599999L561.611 0.3L553.811 0V58.1Z" fill="#238CB9"/>
<path d="M178.179 21.1005C160.679 23.7005 150.779 32.1005 150.779 44.4005C150.779 54.8005 155.679 60.4005 174.579 71.6005C190.579 81.1005 194.779 85.1005 195.479 91.5005C195.979 95.8005 195.779 96.4005 192.379 99.5005C185.779 105.801 172.879 106.601 158.779 101.501C155.079 100.201 151.779 99.1005 151.379 99.1005C150.979 99.1005 150.779 102.301 150.979 106.301L151.279 113.501L156.279 114.801C164.179 116.901 178.479 117.501 186.279 116.201C200.179 113.801 210.379 106.001 212.779 96.1005C215.779 83.5005 208.979 74.3005 186.879 61.2005C180.479 57.4005 173.779 53.0005 172.079 51.3005C166.379 46.0005 166.679 40.4005 173.079 35.7005C177.179 32.7005 193.879 32.8005 201.579 35.8005L206.779 37.9005V24.2005L202.579 23.0005C198.379 21.9005 186.279 20.1005 184.279 20.3005C183.809 20.3005 181.009 20.7005 178.179 21.1005Z" fill="#238CB9"/>
<path d="M502.811 60.8996C502.811 104.6 503.211 107.6 509.211 112.9C515.511 118.4 526.911 119.4 539.611 115.6L544.811 114V99.1996L540.111 101.3C536.479 102.654 532.676 103.495 528.811 103.8C523.011 104.3 522.111 104.1 520.311 102.1C518.511 100.1 518.311 98.4996 518.311 78.6996V57.5996L530.111 57.2996L541.811 56.9996V44.0996H517.811V22.0996H502.811V60.8996Z" fill="#238CB9"/>
<path d="M238.011 43.5995C234.111 44.3995 229.911 45.2995 228.811 45.5995C226.911 46.1995 226.811 47.0995 226.811 81.1995V116.099H242.811V57.2995L245.911 56.6995C252.211 55.4995 257.411 55.9995 260.811 58.2995C268.711 63.6995 269.811 68.4995 269.811 96.1995V116.099H284.911L284.511 90.2995C284.311 76.1995 283.911 63.6995 283.711 62.5995C283.411 61.0995 284.411 60.1995 288.811 58.3995C298.111 54.4995 304.811 56.4995 309.011 64.3995C311.211 68.3995 311.311 69.8995 311.611 92.2995L311.911 116.099H327.811V95.2995C327.811 67.2995 325.711 58.1995 317.611 50.0995C309.711 42.1995 296.311 40.4995 281.311 45.5995L273.411 48.1995L267.811 45.3995C263.211 43.0995 260.911 42.5995 253.811 42.3995C248.519 42.3244 243.231 42.726 238.011 43.5995Z" fill="#238CB9"/>
<path d="M364.81 43.5993C351.01 47.4993 343.51 58.2993 342.21 76.0993C341.61 84.2993 343.41 95.2993 346.51 101.799C352.01 113.499 366.71 119.799 381.91 117.099C389.51 115.699 394.21 113.399 398.51 108.899C410.81 96.0993 411.51 66.0993 399.71 52.6993C391.91 43.7993 377.51 40.0993 364.81 43.5993ZM381.11 56.9893C387.91 59.5893 392.11 68.2893 392.11 79.5893C392.01 92.7893 387.61 100.989 379.51 103.189C366.11 106.789 356.91 95.6893 358.01 77.0893C358.51 68.0893 361.41 61.9893 366.71 58.3893C370.31 55.8993 376.71 55.2993 381.11 56.9893Z" fill="#238CB9"/>
<path d="M444.909 43.0999C428.709 46.4999 419.709 61.9999 421.109 84.0999C422.509 106.2 433.709 117.5 453.809 117.5C470.509 117.5 481.209 109.5 485.409 93.8999C487.209 86.9999 487.209 71.7999 485.309 65.4999C482.309 55.2999 474.409 46.4999 465.909 44.0999C460.609 42.4999 450.009 42.0999 444.909 43.0999ZM460.109 57.1999C468.009 61.2999 471.309 68.8999 470.609 81.9999C469.809 96.6999 464.509 103.6 453.609 103.6C446.809 103.6 443.509 101.5 439.909 95.0999C435.409 86.9999 436.009 68.8999 441.109 62.4999C445.609 56.6999 454.409 54.2999 460.109 57.1999Z" fill="#238CB9"/>
<path d="M727.179 3.4997C724.579 6.0997 723.779 7.6997 723.779 10.5997C723.779 13.4997 724.579 15.0997 727.179 17.6997C731.579 22.0997 735.479 22.1997 739.979 18.1997C742.779 15.6997 743.279 14.5997 743.279 10.5997C743.279 6.5997 742.779 5.4997 739.979 2.9997C735.509 -1.0103 731.609 -0.900306 727.179 3.4997Z" fill="white"/>
<path d="M816.711 4.99038C814.411 7.29038 813.811 8.79038 813.811 12.0904C813.811 23.7904 830.511 25.9904 833.411 14.6904C835.911 4.70038 824.011 -2.19962 816.711 4.99038Z" fill="white"/>
<path d="M628.811 70.0996V118.1H643.811V75.0996H688.811V118.2L696.111 117.9L703.311 117.6L703.611 69.7996L703.811 22.0996H688.811V60.0996H643.811V22.0996H628.811V70.0996Z" fill="white"/>
<path d="M725.811 81.5996V118.1H741.811V45.0996H725.811V81.5996Z" fill="white"/>
<path d="M857.311 46.9002L849.311 48.6002L849.011 84.3002L848.811 120.1H864.811V91.1002C864.811 57.8002 864.011 60.1002 875.011 60.1002C883.111 60.1002 887.111 62.4002 890.111 68.9002C892.111 73.2002 892.311 75.4002 892.611 96.9002L892.911 120.2L901.111 119.9L909.311 119.6V96.1002C909.311 69.8002 908.511 65.3002 902.611 56.5002C900.356 53.0469 897.165 50.3067 893.411 48.6002C888.011 45.9002 886.511 45.6002 876.411 45.4002C870.009 45.2163 863.605 45.7192 857.311 46.9002Z" fill="white"/>
<path d="M948.51 46.1992C940.31 48.0992 931.71 54.5993 928.11 61.4993C919.61 77.7992 922.61 104.399 934.11 114.699C939.41 119.599 943.51 121.099 951.31 121.099C958.21 121.099 963.41 119.499 965.71 116.799C968.51 113.399 969.01 114.999 968.61 124.899C968.21 136.199 966.41 140.499 960.81 143.399C956.31 145.799 943.01 145.199 934.31 142.299C931.11 141.099 928.01 140.499 927.61 140.699C927.21 140.899 926.81 144.299 926.81 148.099C926.81 156.299 926.71 156.199 938.81 158.699C948.71 160.699 963.21 160.199 969.01 157.699C978.01 153.799 982.91 146.199 984.81 133.399C985.31 129.699 985.81 108.999 985.81 87.3993V48.2992L983.11 47.6992C970.11 45.0992 955.91 44.3992 948.51 46.1992ZM967.61 60.9892C968.71 61.5892 968.91 65.1893 968.61 77.6893C968.31 92.3893 968.11 93.8893 965.81 97.8893C962.81 103.189 958.31 106.089 953.21 106.089C948.11 106.089 945.41 104.089 942.61 98.7893C940.81 95.2893 940.41 92.8893 940.41 84.5893C940.31 76.0893 940.71 73.8892 942.71 69.8892C946.01 63.0892 951.21 60.0892 959.81 60.0892C963.41 60.0992 966.91 60.4992 967.61 60.9892Z" fill="white"/>
<path d="M762.809 48.9898C761.209 52.0898 761.409 116.19 763.109 118.49C764.109 119.89 765.609 120.19 770.309 119.89L776.309 119.59L776.609 92.1898C776.709 73.9898 777.209 64.2898 777.909 63.3898C778.609 62.4898 782.209 62.0898 790.909 62.0898H802.809V55.1898C802.809 49.7898 802.409 48.1898 801.209 47.6898C800.309 47.3898 791.609 47.0898 781.809 47.0898C765.109 47.0998 763.809 47.1998 762.809 48.9898Z" fill="white"/>
<path d="M815.811 83.5996V120.1H831.811V47.0996H815.811V83.5996Z" fill="white"/>
<path d="M68.26 140.34C105.959 140.34 136.52 109.779 136.52 72.0803C136.52 34.3814 105.959 3.82031 68.26 3.82031C30.561 3.82031 0 34.3814 0 72.0803C0 109.779 30.561 140.34 68.26 140.34Z" fill="#75C059"/>
<path d="M16.0703 84.3693L35.4803 64.8693L52.4803 82.3393L99.4403 35.0893C100.412 34.1082 101.727 33.5447 103.107 33.5185C104.487 33.4924 105.823 34.0057 106.831 34.9493L118.781 46.1493C119.297 46.633 119.711 47.2152 119.999 47.8615C120.287 48.5079 120.443 49.2053 120.457 49.9127C120.471 50.6201 120.343 51.3231 120.081 51.9803C119.819 52.6375 119.428 53.2356 118.931 53.7393L57.6903 115.839C56.385 117.153 54.6124 117.895 52.7607 117.905C50.9089 117.914 49.1289 117.189 47.8103 115.889L16.0703 84.3693Z" fill="white"/>
<path d="M106.479 87.4004H94.5391V121.28H106.479V87.4004Z" fill="white"/>
<path d="M117.46 110.309V98.3691H83.5801V110.309H117.46Z" fill="white"/>
</g>
</g>
<defs>
<clipPath id="clip0_201_1319">
<rect width="986" height="160" fill="white"/>
</clipPath>
</defs>
</svg>
